HIERARCHY
ROOT Hips
{
	OFFSET -0.001795 -0.223333 0.028219
	CHANNELS 6 Xposition Yposition Zposition Zrotation Yrotation Xrotation 
	JOINT LeftUpLeg
	{
		OFFSET 0.069520 -0.091406 -0.006815
		CHANNELS 3 Zrotation Yrotation Xrotation
		JOINT LeftLeg
		{
			OFFSET 0.034277 -0.375199 -0.004496
			CHANNELS 3 Zrotation Yrotation Xrotation
			JOINT LeftFoot
			{
				OFFSET -0.013596 -0.397961 -0.043693
				CHANNELS 3 Zrotation Yrotation Xrotation
				JOINT LeftToe
				{
					OFFSET 0.026358 -0.055791 0.119288
					CHANNELS 3 Zrotation Yrotation Xrotation
					End Site
					{
						OFFSET 0.000000 0.000000 0.000000
					}
				}
			}
		}
	}
	JOINT RightUpLeg
	{
		OFFSET -0.067670 -0.090522 -0.004320
		CHANNELS 3 Zrotation Yrotation Xrotation
		JOINT RightLeg
		{
			OFFSET -0.038290 -0.382569 -0.008850
			CHANNELS 3 Zrotation Yrotation Xrotation
			JOINT RightFoot
			{
				OFFSET 0.015774 -0.398415 -0.042312
				CHANNELS 3 Zrotation Yrotation Xrotation
				JOINT RightToe
				{
					OFFSET -0.025372 -0.048144 0.123348
					CHANNELS 3 Zrotation Yrotation Xrotation
					End Site
					{
						OFFSET 0.000000 0.000000 0.000000
					}
				}
			}
		}
	}
	JOINT Spine
	{
		OFFSET -0.002533 0.108963 -0.026696
		CHANNELS 3 Zrotation Yrotation Xrotation
		JOINT Spine1
		{
			OFFSET 0.005487 0.135180 0.001092
			CHANNELS 3 Zrotation Yrotation Xrotation
			JOINT Spine2
			{
				OFFSET 0.001457 0.052922 0.025425
				CHANNELS 3 Zrotation Yrotation Xrotation
				JOINT Neck
				{
					OFFSET -0.002778 0.213870 -0.042857
					CHANNELS 3 Zrotation Yrotation Xrotation
					JOINT Head
					{
						OFFSET 0.005152 0.064970 0.051349
						CHANNELS 3 Zrotation Yrotation Xrotation
						End Site
						{
							OFFSET 0.000000 0.000000 0.000000
						}
					}
				}
				JOINT LeftShoulder
				{
					OFFSET 0.078845 0.121749 -0.034090
					CHANNELS 3 Zrotation Yrotation Xrotation
					JOINT LeftArm
					{
						OFFSET 0.090977 0.030469 -0.008868
						CHANNELS 3 Zrotation Yrotation Xrotation
						JOINT LeftForeArm
						{
							OFFSET 0.259612 -0.012772 -0.027456
							CHANNELS 3 Zrotation Yrotation Xrotation
							JOINT LeftHand
							{
								OFFSET 0.249234 0.008986 -0.001171
								CHANNELS 3 Zrotation Yrotation Xrotation
								End Site
								{
									OFFSET 0.000000 0.000000 0.000000
								}
							}
						}
					}
				}
				JOINT RightShoulder
				{
					OFFSET -0.081759 0.118833 -0.038615
					CHANNELS 3 Zrotation Yrotation Xrotation
					JOINT RightArm
					{
						OFFSET -0.096012 0.032551 -0.009143
						CHANNELS 3 Zrotation Yrotation Xrotation
						JOINT RightForeArm
						{
							OFFSET -0.253742 -0.013329 -0.021401
							CHANNELS 3 Zrotation Yrotation Xrotation
							JOINT RightHand
							{
								OFFSET -0.255298 0.007772 -0.005559
								CHANNELS 3 Zrotation Yrotation Xrotation
								End Site
								{
									OFFSET 0.000000 0.000000 0.000000
								}
							}
						}
					}
				}
			}
		}
	}
}
MOTION
Frames: 10
Frame Time: 0.050000
0.000000 0.948017 0.000000 1.230810 -5.493223 4.671405 6.599038 -0.249837 -5.150202 -7.883745 1.269232 6.903963 5.710629 13.572292 14.791061 0.000000 0.000000 0.000000 -4.047032 0.552645 -5.739294 0.609267 0.009217 1.777894 -9.138817 -22.048518 13.725678 0.000000 0.000000 0.000000 3.302205 -0.919534 13.315032 -0.614323 0.545869 -19.137157 -1.487479 2.914555 28.363715 1.998417 0.327042 -25.467910 0.000000 0.000000 0.000000 -29.033008 -16.767726 9.663419 -56.462654 -25.380199 2.947568 6.466323 -37.581298 0.229841 0.000000 0.000000 0.000000 22.303600 13.746391 6.617233 54.536779 23.136026 2.791417 -15.723316 31.777160 -2.459682 0.000000 0.000000 0.000000 
-0.000134 0.946869 -0.000422 0.814543 -4.901555 5.022293 7.143285 -0.250725 -5.344227 -7.890023 1.231933 6.500101 5.527549 13.293050 14.164130 0.000000 0.000000 0.000000 -3.747406 0.545113 -5.623868 0.990093 -0.056829 1.073298 -9.426811 -22.479689 13.788461 0.000000 0.000000 0.000000 3.498592 -0.939008 12.887232 -0.340710 0.465269 -18.491557 -1.554003 3.236395 27.434051 2.388272 0.139395 -24.320196 0.000000 0.000000 0.000000 -29.632032 -15.439361 8.459161 -55.380318 -24.194116 2.392045 3.926873 -44.995004 1.310643 0.000000 0.000000 0.000000 21.250042 13.125405 6.376149 56.041023 24.090816 3.520776 -15.068931 37.034439 -2.630279 0.000000 0.000000 0.000000 
-0.000127 0.947814 -0.001110 0.828435 -3.853100 4.246301 7.004439 -0.248290 -4.951649 -7.419635 1.135294 6.950306 4.967060 12.528906 14.062373 0.000000 0.000000 0.000000 -4.143139 0.458044 -4.518755 1.845107 -0.155980 0.809715 -9.856725 -23.086947 14.335913 0.000000 0.000000 0.000000 3.363095 -0.908099 12.582764 -0.720002 0.607788 -19.066800 -1.542686 2.994204 27.499233 1.903714 0.387460 -23.000890 0.000000 0.000000 0.000000 -28.765904 -15.290373 8.114116 -55.312713 -25.919602 3.246521 6.635671 -50.185630 0.318056 0.000000 0.000000 0.000000 20.366390 13.603078 6.675604 56.188968 23.810662 3.406846 -12.022250 45.203652 -2.021335 0.000000 0.000000 0.000000 
-0.000195 0.947504 -0.002014 0.839396 -3.707629 3.739701 7.230111 -0.208329 -4.010599 -7.779077 1.164620 6.158915 4.815920 12.294841 13.899141 0.000000 0.000000 0.000000 -4.546522 0.422293 -4.007461 2.584679 -0.232341 0.821739 -9.903469 -23.149339 14.203489 0.000000 0.000000 0.000000 2.877541 -0.824202 12.311693 -0.611087 0.589849 -19.480721 -1.362434 4.237000 27.935129 2.698399 0.000918 -21.639253 0.000000 0.000000 0.000000 -26.824787 -16.196395 7.992483 -57.021442 -27.130866 4.198502 8.853251 -55.932592 -0.881577 0.000000 0.000000 0.000000 20.388231 13.244243 6.871109 55.996201 23.885892 3.341639 -7.061013 55.032719 0.348144 0.000000 0.000000 0.000000 
-0.000228 0.948445 -0.003002 0.734017 -2.426582 3.010235 7.081589 -0.199861 -3.358010 -7.027446 0.995133 5.994678 4.160588 11.385498 13.686770 0.000000 0.000000 0.000000 -4.437619 0.341704 -3.004297 2.804981 -0.266730 0.692874 -10.457494 -23.929028 14.905854 0.000000 0.000000 0.000000 2.664113 -0.793040 12.074027 -0.686489 0.626640 -18.845440 -1.171158 3.916588 27.304302 2.218615 0.382338 -21.656747 0.000000 0.000000 0.000000 -24.406086 -16.304616 7.624022 -57.874453 -28.981867 5.418425 13.936794 -59.760552 -3.949781 0.000000 0.000000 0.000000 18.905160 13.056153 6.710805 57.732183 23.726197 3.638424 0.570618 64.700825 5.516613 0.000000 0.000000 0.000000 
-0.000050 0.949431 -0.004258 0.829609 -1.614575 3.086738 6.999656 -0.208617 -3.122873 -6.913410 0.926948 5.060251 3.689288 10.762514 13.834435 0.000000 0.000000 0.000000 -4.627032 0.327684 -2.833776 3.059604 -0.304500 0.287157 -10.825116 -24.420655 15.566741 0.000000 0.000000 0.000000 2.084202 -0.692530 11.382109 -0.165257 0.527171 -20.042281 -1.091558 4.047155 27.945074 2.480853 0.284237 -21.424786 0.000000 0.000000 0.000000 -22.998882 -15.886530 7.084400 -57.435191 -30.454382 6.060669 16.366077 -62.671103 -5.739338 0.000000 0.000000 0.000000 17.706952 13.241482 6.853993 58.154924 22.953454 3.275387 15.591877 73.228375 18.137145 0.000000 0.000000 0.000000 
0.000346 0.950086 -0.005830 0.931373 -0.646021 2.538456 6.569853 -0.201169 -2.624381 -6.203723 0.789299 4.809039 3.192173 10.076804 13.714228 0.000000 0.000000 0.000000 -4.751408 0.294647 -2.517868 3.186309 -0.318997 0.866442 -11.309899 -25.088880 16.027993 0.000000 0.000000 0.000000 1.602511 -0.627643 11.112783 0.098816 0.466434 -19.780232 -0.943003 3.699531 27.609739 2.273346 0.497837 -21.947465 0.000000 0.000000 0.000000 -21.332499 -15.651824 6.729171 -57.547531 -32.371475 7.147317 21.343804 -62.997506 -8.937588 0.000000 0.000000 0.000000 17.103915 13.417886 6.917945 59.402291 23.354146 3.754663 29.220996 75.709257 29.998516 0.000000 0.000000 0.000000 
0.000969 0.950190 -0.008172 0.849521 -0.154884 2.325269 6.434468 -0.200815 -2.502098 -5.787741 0.713019 4.621863 2.977321 9.762123 13.538072 0.000000 0.000000 0.000000 -4.496625 0.278359 -2.403429 2.898524 -0.289933 0.939186 -11.559127 -25.421665 16.325847 0.000000 0.000000 0.000000 1.568287 -0.603936 10.673701 0.424461 0.386652 -19.794188 -1.181383 3.754905 27.659175 2.344665 0.511619 -21.975347 0.000000 0.000000 0.000000 -20.310716 -16.283475 6.908264 -56.798539 -34.251663 7.990168 25.706142 -61.057256 -11.311826 0.000000 0.000000 0.000000 16.714613 14.009476 7.261454 60.622659 23.797711 4.228494 35.415696 76.700156 35.872379 0.000000 0.000000 0.000000 
0.001567 0.950155 -0.011612 0.708960 0.209606 2.157472 6.354451 -0.202393 -2.475016 -5.384284 0.643354 4.423224 2.837577 9.545386 13.347567 0.000000 0.000000 0.000000 -4.302388 0.284826 -2.613868 2.812844 -0.277304 1.334627 -11.761105 -25.695186 16.538650 0.000000 0.000000 0.000000 1.706669 -0.620732 10.649179 0.397755 0.403690 -19.842872 -1.027843 4.087010 27.855328 2.646577 0.423808 -22.121205 0.000000 0.000000 0.000000 -19.540412 -17.018925 7.103277 -56.795294 -36.095811 8.962878 28.795029 -57.392351 -12.329489 0.000000 0.000000 0.000000 16.689168 14.223673 7.500514 61.513768 24.726899 4.916322 32.671561 76.632377 33.816678 0.000000 0.000000 0.000000 
0.001869 0.950041 -0.016198 0.527421 0.793193 2.004574 6.330124 -0.215770 -2.697216 -4.930491 0.567188 4.435348 2.611441 9.201234 13.099994 0.000000 0.000000 0.000000 -3.888005 0.302341 -3.003063 2.479227 -0.231765 1.940319 -12.112346 -26.169813 16.851060 0.000000 0.000000 0.000000 1.939471 -0.653128 10.680204 0.154204 0.475658 -19.486263 -1.134600 4.279846 27.748292 2.695936 0.492726 -22.232296 0.000000 0.000000 0.000000 -18.923402 -17.348847 7.073884 -57.030689 -37.621395 9.861177 30.770817 -54.438593 -12.742636 0.000000 0.000000 0.000000 16.751669 14.312874 7.686294 63.128274 25.726876 5.854290 29.295172 75.706109 30.789410 0.000000 0.000000 0.000000 
